# OBJ written from E:\Projekty\engine\deranos2\Deranos\resources\models\cube\cube.obj
# Units	meters

o Cube
v -0.5 -0.5 -0.5
v 0.5 -0.5 -0.5
v 0.5 -0.5 0.5
v -0.5 -0.5 0.5
v -0.5 0.5 -0.5
v 0.5 0.5 -0.5
v 0.5 0.5 0.5
v -0.5 0.5 0.5
vn 0 -1 0
vn 0 0 -1
vn 1 0 0
vn 0 0 1
vn -1 0 0
vn 0 1 0
vt 1 1
vt -1.0 1.0
vt -1.0 -1.0
vt 1.0 -1.0
mtllib cube.mtl
usemtl Default
g Default
f 1/1/1 2/2/1 3/3/1 4/4/1
f 5/3/2 6/4/2 2/1/2 1/2/2
f 6/4/3 7/1/3 3/2/3 2/3/3
f 7/1/4 8/2/4 4/3/4 3/4/4
f 8/1/5 5/2/5 1/3/5 4/4/5
f 5/2/6 8/1/6 7/4/6 6/3/6
